<svg xmlns="http://www.w3.org/2000/svg" viewBox="0 0 281.37 154.64"><defs><style>.cls-1{fill:#ececec;}</style></defs><title>h2-white</title><g id="Layer_2" data-name="Layer 2"><g id="Layer_1-2" data-name="Layer 1"><path class="cls-1" d="M64.18,102Z"/><path class="cls-1" d="M46.55,78.64v-1l-.94-3.09-.84,5a7.34,7.34,0,0,0,1.78-.68Z"/><path class="cls-1" d="M69.52,75.6v-1l-1-2.93-.73,4.6c.52,0,1.15.05,1.78.05Z"/><path class="cls-1" d="M52.57,76.6v-1l-1-2.93-.89,5.07c.63-.1,1.26-.31,1.88-.37V76.6Z"/><path class="cls-1" d="M60.52,75.6v-1l-.94-2.93-.84,4.81H59c.58-.1,1.1-.16,1.57-.21V75.6Z"/><path class="cls-1" d="M77.42,76.6l-1-2.93L75.9,77a5.23,5.23,0,0,0,1.52.31Z"/><path class="cls-1" d="M83.43,78.64v-1l-1-3.09-.68,3.82a7.38,7.38,0,0,0,1.67.47Z"/><path class="cls-1" d="M65,83.08c17.42,0,31.7,6.75,33.95,15.38a7.67,7.67,0,0,0,.37-2.51c0-9.78-15.38-17.89-34.31-17.89S30.65,86.17,30.65,95.95A9.37,9.37,0,0,0,31,98.46C33.32,89.78,47.65,83.08,65,83.08Z"/><path class="cls-1" d="M39.6,76.6l1,2.93v1.94a48,48,0,0,1,18.1-5l.84-4.81.94,2.93v1.73a5.4,5.4,0,0,0-1.57.21c2-.16,4-.26,6.07-.26,9.36,0,17.89,1.94,24.06,5.13a12.35,12.35,0,0,0-1.2-.68l.58-3,.89,2.93v.89a27.3,27.3,0,0,1,4,2.56,30,30,0,0,0-16.48-27,12.26,12.26,0,0,0-8.32-7.58h1V46.41h.89V41.29h-3.3l-1.67-5.13a2.93,2.93,0,1,0-3.87-2.77,2.83,2.83,0,0,0,2,2.77l-1.73,5.13H58.59v5h1v3.09h1.1a12.14,12.14,0,0,0-8.47,8.11A30.19,30.19,0,0,0,36.77,84c.63-.47,1.31-.94,2-1.36Zm42.84-2,1,3.09V78.9a6.7,6.7,0,0,1-1.67-.47Zm-6-.89,1,2.93v.73A5.23,5.23,0,0,1,76,77Zm-8-2,1,2.93v1.73c-.63,0-1.26-.05-1.78-.05Zm-16.9,1,1,2.93v1.78c-.68.1-1.26.31-1.88.37Zm-6,1.88.94,3.09V78.9a10.4,10.4,0,0,1-1.78.68Z"/><path class="cls-1" d="M38.76,82.56a.05.05,0,0,0-.05.05h0A.05.05,0,0,1,38.76,82.56Z"/><path class="cls-1" d="M64.18,102h.73c20.4,0,37.5,6,41.43,13.91a6.77,6.77,0,0,0,.78-3.5c0-9.62-18.78-17.31-42.21-17.31-23.28,0-42.21,7.69-42.21,17.31a7.23,7.23,0,0,0,.84,3.5C27.36,108.08,44,102.12,64,102h.16Z"/><polyline class="cls-1" points="0.99 151.6 2.88 154.64 126.11 154.64 128 151.6"/><path class="cls-1" d="M125.23,149.46l3.19-9.68h-9.83l1.67-6.43h-15V118.08a2.25,2.25,0,0,0-2.2-2.2,2.32,2.32,0,0,0-2.35,2.2v15.27H98.5v-19.2a3.24,3.24,0,1,0-6.49,0v17.52l-2.41-1.26V110.23a3.58,3.58,0,0,0-3.66-3.66,3.71,3.71,0,0,0-3.82,3.66v16.16l-2.25-1.2V108.4a4.39,4.39,0,0,0-8.79,0v12.08l-2.25-1.2V106.62a4.63,4.63,0,0,0-4.55-4.6h-.21a4.62,4.62,0,0,0-4.5,4.6v13l-2.3,1.26V108.4a4.34,4.34,0,1,0-8.68,0v17.1l-2.3,1.26V110.28a3.77,3.77,0,0,0-7.53,0v20.56l-2.3,1.26V114.31a3.24,3.24,0,0,0-6.49,0v19h-2.3V118.08a2.27,2.27,0,0,0-2.3-2.2,2.3,2.3,0,0,0-2.3,2.2v15.27H7.79l1.62,6.43H0l3.82,9.68"/><path class="cls-1" d="M64.23,102Z"/><path class="cls-1" d="M64.18,102h0Z"/><path class="cls-1" d="M37.66,94.07V97.2a41,41,0,0,1,4.5-1.41V94.07a2.12,2.12,0,0,0-2.2-2.2A2.17,2.17,0,0,0,37.66,94.07Z"/><path class="cls-1" d="M45.77,92V94.9c1.46-.31,2.93-.47,4.5-.78V92a2.27,2.27,0,0,0-2.3-2.2A2.21,2.21,0,0,0,45.77,92Z"/><path class="cls-1" d="M53.88,90.2v3.5a32,32,0,0,1,4.5-.37V90.25a2.25,2.25,0,0,0-4.5-.05Z"/><path class="cls-1" d="M62,89.15V93C63,93,64,93,65,93h1.57V89.1a2.25,2.25,0,0,0-4.5.05Z"/><path class="cls-1" d="M70.2,90.09v3c1.46.21,3,.26,4.39.37V90.09a2.32,2.32,0,0,0-2.2-2.35A2.25,2.25,0,0,0,70.2,90.09Z"/><path class="cls-1" d="M78.2,92v1.83c1.62.26,3.09.58,4.55.73V92a2.25,2.25,0,0,0-2.2-2.2A2.28,2.28,0,0,0,78.2,92Z"/><path class="cls-1" d="M86.36,94.12v1.31c1.52.37,3.14.78,4.55,1.2V94.12a2.28,2.28,0,0,0-4.55,0Z"/><path class="cls-1" d="M40.64,81.51h0a16,16,0,0,0-1.88,1A16,16,0,0,1,40.64,81.51Z"/><path class="cls-1" d="M58.69,76.49c.05,0,.16-.05.21-.05a.4.4,0,0,0-.21.05Z"/><path class="cls-1" d="M89.29,81.46,89,81.3l.31.16Z"/><path class="cls-1" d="M72.45,24.08c-1.52-.47-7.9-2.56-11.09-3.66C59.74,24.6,51.21,47.09,54.14,51c3.24,4.29,14.23.52,17.63,1.26s3-2.88,3-2.88Z"/><path class="cls-1" d="M80.92,11.42c-.89-1.2-6-.94-6-.94s-1.31-2.77-2.09-3.24c-.94-.58-3.66-.47-3.66-.47S69.88.33,68.63,0c-2.3-.58-5.81,14.28-6.8,18.46a65.41,65.41,0,0,0,10.25,3.4L72,21.67s.1-2,1.41-2.51c.89-.31,5.39-1.26,6.59-2.51C81.08,15.71,81.71,12.47,80.92,11.42Z"/><path class="cls-1" d="M53.77,47.62c-9.15-3.71-4.71-12.08-7.74-13-2.09,6.8,1.2,12.76,3.35,15.33,2,2.35,6.07,4.13,6.22,2.67"/><path class="cls-1" d="M132.34,127.39c-5.6,0-8.89-1.94-9.83-5.75a18.73,18.73,0,0,0-2.14-4.6,26,26,0,0,1-.68-5.07,60,60,0,0,1-1.78-14.12,46.32,46.32,0,0,1,2.62-15.9,7.14,7.14,0,0,1,2.93-4.08c.31-.94,1.62-1.78,3.92-2.46a28.7,28.7,0,0,1,5.07-.68h.68c6.85,0,11.72,7.43,14.44,22.34.1,2.56.21,4.18.31,4.92a76.14,76.14,0,0,1-1.62,10.83q0,2.2-3.77,10.36c-.78,2.3-2.67,3.45-5.6,3.45h-1.46a17,17,0,0,1-2.14.84h-.94Zm2.62-18a38,38,0,0,0,.47-5.91,86.36,86.36,0,0,0-1.15-9.83v-.31a.14.14,0,0,1,.16-.16,24.18,24.18,0,0,1-2.93-7.22c-.47-1.1-.84-1.78-1.31-2-1.31,2.14-2,6.38-2,12.66l.16.31a.14.14,0,0,1-.16.16,80.74,80.74,0,0,0,2,12.66,56.72,56.72,0,0,1,2.3,8.53c.47.68.84,1,1.15,1.15C134.54,117.19,135,113.84,135,109.34Z"/><path class="cls-1" d="M168.8,69.8l1.15-.16c3.3,0,4.92.47,4.92,1.46,0,1.83-.68,2.93-2.14,3.3A25.69,25.69,0,0,1,167.49,76l-.31-.16A.14.14,0,0,0,167,76l-1.15-.16h-3V76c.47,1.41,1.26,3.61,2.46,6.59l-.16,1.15v.47c.1,1,.42,1.46.84,1.46,1,0,3-.05,5.91-.16,1.31,0,2,.47,2,1.46v.47c0,1.94-2.41,3.35-7.22,4.29h-.31v.31a52.22,52.22,0,0,1,.84,7.22v3.77a16,16,0,0,1-.31,2.93q.16,2.2.16,3.3c0,.26-.05.84-.16,1.83a12.48,12.48,0,0,1,1,3.3c-.47,4.76-.68,7.74-.68,8.84.47,4.24,1,6.64,1.62,7.22v.47c0,2.93-.52,4.45-1.62,4.45,0,.26-.47.42-1.46.47h-.47a18,18,0,0,1-10.2-3.3c-.68-.84-1-2.77-1-5.6-.21,0-.47-3.24-.84-9.68-.21,0-.31-.47-.31-1.31s.05-1.94.16-3.14c-.21-2.2-.37-6-.47-11.35a16.63,16.63,0,0,0,.16-2.46,38.5,38.5,0,0,1-.68-4.92c.1-4.39.16-7.38.16-9a12.28,12.28,0,0,0-.47-3.61c.1-1.1.16-2,.16-2.62V78a.14.14,0,0,1,.16-.16A18,18,0,0,1,151,73.09c0-.68,1.1-1.26,3.3-1.83L165.76,70c0-.21.52-.26,1.62-.31h1.15a.14.14,0,0,0,.16-.16C168.75,69.64,168.8,69.69,168.8,69.8Z"/><path class="cls-1" d="M198,70.11c.47.37,3.24,1,8.21,1.83a17.66,17.66,0,0,1,5.91,4.45c3.61,4.5,5.44,8.16,5.44,11v1.15l-.16.84c.52,0,.84,2.09,1,6.22.31.52.52,2.62.68,6.22a45.66,45.66,0,0,1-1.46,11.14c-.31,2.41-1,4-2,4.92a9.92,9.92,0,0,0-1.83,4.45,16.89,16.89,0,0,0-4.6,5.91c-3,4.13-6,6.22-8.68,6.22a47.19,47.19,0,0,1-5.44-2.93,8.13,8.13,0,0,1-2.3-6.22v-.16c0-.84.16-3.61.47-8.21a41.93,41.93,0,0,1-.68-6.38v-6.07c-.47-3.92-.68-6.22-.68-7.06V89.2a45.58,45.58,0,0,0-.68-7.06v-.31c.31-3,.47-4.66.47-4.92V75.6a4.88,4.88,0,0,1-1.31-2.77c.47-2.09,1.31-3.14,2.62-3.14,0-.1.31-.26,1-.47A10.46,10.46,0,0,1,198,70.11Zm5.44,12.66v2c0,.47.63,4.81,1.83,13v1.83a111.54,111.54,0,0,0,1.15,13.29h.16a34,34,0,0,1,1.15-3.77c0-.47.05-2.93.16-7.22-.58-7-1.1-10.51-1.62-10.51,0-.73-.84-3.56-2.62-8.53h-.21Z"/><path class="cls-1" d="M235.7,72.15c5.6,0,8.89,1.94,9.83,5.75a18.73,18.73,0,0,0,2.14,4.6,26,26,0,0,1,.68,5.07,57.52,57.52,0,0,1,1.83,14.12,46.32,46.32,0,0,1-2.62,15.9,7.14,7.14,0,0,1-2.93,4.08c-.31.94-1.62,1.78-3.92,2.46a28.7,28.7,0,0,1-5.07.68H235c-6.85,0-11.72-7.43-14.44-22.34-.1-2.56-.21-4.18-.31-4.92a76.14,76.14,0,0,1,1.62-10.83q0-2.2,3.77-10.36c.78-2.3,2.67-3.45,5.6-3.45h1.46a17,17,0,0,1,2.14-.84h.89Zm-2.62,18a38,38,0,0,0-.47,5.91,86.36,86.36,0,0,0,1.15,9.83v.31a.14.14,0,0,1-.16.16,24.18,24.18,0,0,1,2.93,7.22c.47,1.1.84,1.78,1.31,2,1.31-2.14,2-6.38,2-12.66l-.16-.31a.14.14,0,0,1,.16-.16,80.74,80.74,0,0,0-2-12.66,56.72,56.72,0,0,1-2.3-8.53c-.47-.68-.84-1-1.15-1.15C233.5,82.35,233.09,85.7,233.09,90.2Z"/><path class="cls-1" d="M277.29,73.72,278,76a9.17,9.17,0,0,1-.16,1.31c.1,2.25.16,4.13.16,5.6-.21,1.46-.31,2.41-.31,2.77l.47,2.93c-.63,3.09-1.36,4.6-2.14,4.6a40.15,40.15,0,0,1-4.45.47c-2.93,0-5-1.15-6.07-3.45a54.83,54.83,0,0,1-1.46-12c-.78.52-1.15,1-1.15,1.31q0,2,.47,7.06v1.15c0,.63-.05,1.52-.16,2.62A89,89,0,0,1,265,100.76l-.16.68a2.84,2.84,0,0,1,.47,1.31v1.31c0,.1.16,1.26.47,3.3a6,6,0,0,1-.16,1.46,21.85,21.85,0,0,0,1.46,8.53,22.62,22.62,0,0,0,1.15,6.38,11.35,11.35,0,0,1,.16,2v.47a13.71,13.71,0,0,1,2,3.92h.16a66.52,66.52,0,0,0,1.15-12V117a32.6,32.6,0,0,0-.47-5.91c.1-2.35.16-4.08.16-5.23a16.81,16.81,0,0,1-3.45-1.15l-.16-.84v-.16c0-1.62,2.2-2.56,6.59-2.93h1.46c2.2,0,3.56.63,4.08,1.83.78,0,1.26,2.09,1.46,6.22v.31a27.79,27.79,0,0,1-1.15,5.07c0,.84-.1,2.35-.31,4.6,0,.63.21,2.67.68,6.07-.94,4.6-1.83,7.38-2.62,8.37a10.58,10.58,0,0,1-5.07,3.3,15.79,15.79,0,0,1-6.9,2.14c-1.94,0-4.08-1-6.38-3.14-2.67-2.3-4.86-7.38-6.59-15.27a26.43,26.43,0,0,1-.68-5.91c-.21,0-.37-1-.47-2.93a20.92,20.92,0,0,0,.31-3.14V108a3.19,3.19,0,0,1-.68-2.3,7,7,0,0,1,.47-2.62,9.84,9.84,0,0,0-.16-1c.31-7.17.63-12,.84-14.44,1.2-6,2.46-10.15,3.77-12.29a16.62,16.62,0,0,1,7.9-4.45,17.39,17.39,0,0,1,5.23-.68C273.68,70.27,276.19,71.42,277.29,73.72Z"/><path class="cls-1" d="M128.16,16.39c3.92,0,6.7,1.36,8.32,4.13a33.18,33.18,0,0,1,4.76,8.94,24,24,0,0,1,1.36,6c0,.47-.05,1-.1,1.73a23.92,23.92,0,0,1,.37,3.3,28.27,28.27,0,0,1-.37,3.92,9.66,9.66,0,0,1,.1,1.57,28.43,28.43,0,0,0-1,5,34.59,34.59,0,0,0-1.94,5.23,6,6,0,0,0-2.09,2.93l-1.73,1.1c-2.3,4-4.5,6-6.59,6a2.56,2.56,0,0,1-2.3-1.36c-1.62,0-2.72-.47-3.3-1.46a28.21,28.21,0,0,1-1.2-8,27.8,27.8,0,0,1-.26-4.5V49.45a56.9,56.9,0,0,1-.37-6c0-.05.1-.31.26-.84a29.85,29.85,0,0,1-.37-3.77,28,28,0,0,1,.26-3.56l-.26-1.57.26-4.13c-.1-2.72-.1-5.28-.1-7.69V20.36a9.78,9.78,0,0,1-.47-1.83c0-1.2,2.2-1.94,6.59-2.09h.16Zm1.1,4.55,1.94,8.32v2.46c.84.58,1.2,1.78,1.2,3.66a7,7,0,0,1-.26,1q.39,0,.47,1.73v.26a11.29,11.29,0,0,1-.1,1.46l.1.84c-.1,1-.1,1.57-.1,1.57a17.67,17.67,0,0,1,.26,2.56v7.69a2.35,2.35,0,0,1-.26,1v.1h.1a13.79,13.79,0,0,0,2.09-6.22,26.08,26.08,0,0,0,.73-6.7v-.94c0-7.06-1.36-12.71-4-17Zm2.82,33.84V55h.1v-.26Zm.37-1.1v.26h.1v-.26Z"/><path class="cls-1" d="M156.3,18.79c0,1.31-.84,2.77-2.56,4.29,0,.16-1.36.31-4.08.58-2.77-.05-4.29-.89-4.6-2.51l-.31-2.09a7.12,7.12,0,0,1,1.2-2.46,18.13,18.13,0,0,1,5.6-.84C154.73,15.71,156.3,16.75,156.3,18.79Zm-6,9.26c2.51,0,4,1,4.39,3.19a17.35,17.35,0,0,1,.63,3.92,5.17,5.17,0,0,1-.37,1.36,2.91,2.91,0,0,1,.37,1.57v.63a7.39,7.39,0,0,1-.47,2.56l.1.63v.73c0,.58-.1,2-.37,4.29a21.08,21.08,0,0,0,.37,3.3,16.36,16.36,0,0,1-.63,3.56l1,9.78v.63c0,.78-.84,1.26-2.46,1.46a7.58,7.58,0,0,1-3.4.63h-.63c-1.36,0-2.14-.47-2.46-1.36-.58-.42-.84-1.52-.84-3.3L144.84,52c0-.58.1-1.88.26-4l-.26-4.66c.16-2.25.47-5,.84-8.42.1-1.15.1-2.35.1-3.66v-1.1c0-.63.73-1.26,2.2-1.83a6.43,6.43,0,0,1,1.46-.1h.89Z"/><path class="cls-1" d="M175.6,24.44a28.28,28.28,0,0,1,.73,5.86c0,.89-1.2,1.36-3.66,1.36a5.49,5.49,0,0,1-3.19-1.46,18,18,0,0,1-1.2-3.66c-1.57-2-2.72-3-3.4-3v.84a18,18,0,0,0,1.36,5.39,72.33,72.33,0,0,1,5.6,11.51,49.84,49.84,0,0,0,1.46,5.49c.42,2.14.63,3.35.63,3.4V51c0,1,.1,2.46.26,4.13a14.39,14.39,0,0,0-.47,3.77,17.8,17.8,0,0,1-3.4,5.49c-.52,1-1.67,1.46-3.4,1.46a2,2,0,0,0-.84.1c-3,0-5-1.2-6-3.56a9.37,9.37,0,0,1-1.94-4.13,4.6,4.6,0,0,1-.84-2.67v-.84c0-1.57.84-2.3,2.46-2.3,0-.16.26-.21.84-.26,1.83,0,3.24,1.57,4.29,4.66.58,2,1,3.24,1.57,3.66h.1a28.1,28.1,0,0,0,.47-3.66,26.76,26.76,0,0,0-1.2-7V48.4c-.47-.26-.94-1.46-1.36-3.56a15.16,15.16,0,0,1-1.94-4.5c-2.25-3.66-3.56-6.64-3.92-9s-.73-3.71-.73-4V25.91a1.25,1.25,0,0,1,.1-.47,13.43,13.43,0,0,1-.26-1.83,6.43,6.43,0,0,1,2.67-4,10.16,10.16,0,0,1,6.49-2.3C170.32,17.23,173.24,19.63,175.6,24.44Z"/><path class="cls-1" d="M192.28,16.55c2.62.42,4.76.68,6.33.84a4,4,0,0,1,1.2,2.09c0,1.62-.94,2.77-2.82,3.4a10.72,10.72,0,0,1-3,.47h-3.4a4.18,4.18,0,0,0-.1,1,30.43,30.43,0,0,1,.84,4.39,5.89,5.89,0,0,1-.37,1.46,7.88,7.88,0,0,1,.73,1.83l-.26,1.83.47,5.49a14.85,14.85,0,0,0-.26,1.57,18.22,18.22,0,0,1,.37,2.56,24.44,24.44,0,0,0-.26,2.67v.47c.16,3.19.26,4.92.26,5.13l-.1,1.1a11.61,11.61,0,0,1,.63,3.56v.26a30.16,30.16,0,0,0-.37,3.3,30.54,30.54,0,0,1,.73,3.92c0,1-1.94,1.78-5.75,2.2-1.52,0-2.41-.31-2.82-1-1-1.62-1.57-5.86-1.57-12.61-.1,0-.1-.31-.1-1,.05-1,.16-1.46.26-1.46l-.1-1.2v-2.3a18.23,18.23,0,0,0-.37-4l.26-2.09c-.42-3-.73-8.84-1-17.58-.73-.16-2.41-.42-5-.73a1.6,1.6,0,0,1-.73-1.2c.16-2,1.15-3,2.93-3.09a66.38,66.38,0,0,1,8.94-1c0-.1.1-.1.37-.1a1.25,1.25,0,0,1,.47.1,10.79,10.79,0,0,1,1.73-.1h1.2Z"/><path class="cls-1" d="M214.52,17.12c1.41,1.41,2.46,4.34,3.19,8.79.1,1.41.1,2.3.1,2.56-.63,6.33-1.2,9.52-1.73,9.52a10.49,10.49,0,0,1-1.83,2.93,19.56,19.56,0,0,0-2.67,2.46l-.1.26a17.8,17.8,0,0,1,3.92,6.49c0,.52.63,1.94,1.83,4.13,0,.31.78,2.72,2.3,7.22a8.81,8.81,0,0,1,.26,2.09v.37A2,2,0,0,1,218.6,66q-1.73.47-2.67.63-2.67,0-3.77-3.3a30.78,30.78,0,0,0-2.46-5,17.48,17.48,0,0,0-1.57-4.5,3.46,3.46,0,0,1-.37-1.2h-.1c0,.31-.1,1.2-.26,2.56.05,1,.1,1.46.26,1.46a5.07,5.07,0,0,0-.26,1.94v2.3c0,.26-.05.63-.1,1.1a7.27,7.27,0,0,1,.47,2.46c0,.94-1,1.52-3,1.73-1.83,0-2.88-.37-3.19-1.1-1.15-3.82-1.73-9-1.73-15.64l-.63-7.06.26-2.2a21.87,21.87,0,0,1-.26-3.19V35.9c0-1,.05-2.14.1-3.4a3.06,3.06,0,0,1-.1-1l.26-1.46a27.77,27.77,0,0,1-.26-3.77q.63-5.34,1.73-7.06c.26,0,.58-.63,1-1.83a8.28,8.28,0,0,1,5.49-2.46c.05,0,.58-.05,1.57-.1C211.74,14.66,213.63,15.5,214.52,17.12ZM206.2,24a44.84,44.84,0,0,0,.63,6.49v.63c0,.26-.05.63-.1,1.1a16,16,0,0,1,.47,4.39l.1.47c1.88-1.62,2.82-4.86,2.82-9.78,0-4.18-.84-7-2.56-8.58h-.1c-.68,0-1.1,1.57-1.2,4.66V24Zm1.26,28.25v.26h.1v-.26Z"/><path class="cls-1" d="M233.24,18.79c0,1.31-.84,2.77-2.56,4.29,0,.16-1.36.31-4.08.58-2.77-.05-4.29-.89-4.6-2.51l-.31-2.09a7.11,7.11,0,0,1,1.2-2.46,18.13,18.13,0,0,1,5.6-.84C231.62,15.71,233.24,16.75,233.24,18.79Zm-6,9.26c2.51,0,4,1,4.39,3.19a17.35,17.35,0,0,1,.63,3.92,5.17,5.17,0,0,1-.37,1.36,2.91,2.91,0,0,1,.37,1.57v.63a7.39,7.39,0,0,1-.47,2.56l.1.63v.73c0,.58-.1,2-.37,4.29a21.08,21.08,0,0,0,.37,3.3,16.36,16.36,0,0,1-.63,3.56l1,9.78v.63c0,.78-.84,1.26-2.46,1.46a7.58,7.58,0,0,1-3.4.63h-.63c-1.36,0-2.14-.47-2.46-1.36-.58-.42-.84-1.52-.84-3.3L221.73,52c0-.58.1-1.88.26-4l-.26-4.66c.16-2.25.47-5,.84-8.42.1-1.15.1-2.35.1-3.66v-1.1c0-.63.73-1.26,2.2-1.83a6.43,6.43,0,0,1,1.46-.1h.89Z"/><path class="cls-1" d="M246.74,16.91c.1,0,.1-.05.1-.1a3.72,3.72,0,0,1,2.46,1,1.94,1.94,0,0,1,1.94,1.57,2.91,2.91,0,0,1,1.46,2.09,9.21,9.21,0,0,1,1.1,3.66v.47a4.34,4.34,0,0,1-.37,1.36l.26.47a16.07,16.07,0,0,0-.1,1.73c.26,2.62.42,4,.47,4.29l-.1.26a.78.78,0,0,1,.1.47l-.1.26c0,.1.05.1.1.1,0,2-1.15,3-3.4,3-.1.1-.37.1-.73.1C248,37.21,247,36.53,247,35.74a4,4,0,0,1-.63-2.3.56.56,0,0,0,.1-.37c0-.1-.05-.1-.1-.1l.1-.63v-.1a25.72,25.72,0,0,0-.37-3.56c.1-1.41.1-2.62.1-3.56-.16-1-.42-1.57-.73-1.57l-1.1,4.39.26,1.83a22,22,0,0,0-1,6.12,32.84,32.84,0,0,0-.73,4.29h.1a18.86,18.86,0,0,0-.37,3.92h-.1c0,.1.05.1.1.1A17.33,17.33,0,0,1,242.4,46c0,.1.05.1.1.1l-.1.63v1.1a8.46,8.46,0,0,0,.26,2.56h-.1c.1,0,.16.63.26,1.94a11.29,11.29,0,0,0-.1,1.46,8.8,8.8,0,0,0,.84,2.3c0,1.2.1,1.83.37,1.83a5.65,5.65,0,0,0,1.73-3.4,17,17,0,0,0,.26-3.19,16.13,16.13,0,0,0-.47-3.77v-.1c0-1.15,1.73-1.94,5.13-2.46h.73l.26.1v-.1c1.36.42,2.09,1.1,2.09,2.09a12.3,12.3,0,0,0,.63,3.19v.73a1.25,1.25,0,0,1-.1.47,3.73,3.73,0,0,1,.47,1.36V53l-.1.73.26.63-.1.47.1,1.73a10.6,10.6,0,0,1-1.94,5.23L250.4,63c0,.31-.52.73-1.57,1.2-.16.58-1.57,1-4.29,1.2,0,.1-.47.21-1.46.37h-.63a4,4,0,0,1-3.4-2.09c-1,0-2.14-3.66-3.56-11a52.73,52.73,0,0,1-.63-8.58V41.29l.1-.84h-.1a.56.56,0,0,0,.1-.37A44.54,44.54,0,0,1,236,32a.78.78,0,0,1-.1-.47c0-.1.05-.1.1-.1s-.05-.1-.1-.1q1-7,2.67-9.89c1.52-2.25,2.82-3.61,4-4a15,15,0,0,1,4-.63Z"/><path class="cls-1" d="M270.64,16.55c2.62.42,4.76.68,6.33.84a4,4,0,0,1,1.2,2.09c0,1.62-.94,2.77-2.82,3.4a10.72,10.72,0,0,1-3,.47h-3.4a4.18,4.18,0,0,0-.1,1,30.43,30.43,0,0,1,.84,4.39,5.89,5.89,0,0,1-.37,1.46A7.88,7.88,0,0,1,270,32l-.26,1.83.47,5.49a14.85,14.85,0,0,0-.26,1.57,18.22,18.22,0,0,1,.37,2.56,24.44,24.44,0,0,0-.26,2.67v.47c.16,3.19.26,4.92.26,5.13l-.1,1.1a11.61,11.61,0,0,1,.63,3.56v.26a30.16,30.16,0,0,0-.37,3.3,30.54,30.54,0,0,1,.73,3.92c0,1-1.94,1.78-5.75,2.2-1.52,0-2.41-.31-2.82-1-1-1.62-1.57-5.86-1.57-12.61-.1,0-.1-.31-.1-1,.05-1,.16-1.46.26-1.46l-.1-1.2v-2.3a18.23,18.23,0,0,0-.37-4L261,40.4c-.42-3-.73-8.84-1-17.58-.73-.16-2.41-.42-5-.73a1.6,1.6,0,0,1-.73-1.2c.16-2,1.15-3,2.93-3.09a66.38,66.38,0,0,1,8.94-1c0-.1.1-.1.37-.1a1.25,1.25,0,0,1,.47.1,10.79,10.79,0,0,1,1.73-.1h1.2Z"/></g></g></svg>