<svg xmlns="http://www.w3.org/2000/svg" width="38" height="38" viewBox="0 0 38 38">
  <g id="_5ee9aab9b433aea49828c72f_icon-06" data-name="5ee9aab9b433aea49828c72f_icon-06" transform="translate(-5 -5)">
    <path id="Path_6" data-name="Path 6" d="M33.348,34l-.568-1.426a5.227,5.227,0,0,0-4.856-3.292H20.076a5.227,5.227,0,0,0-4.856,3.292L14.652,34" fill="none" stroke="#fff" stroke-linecap="round" stroke-linejoin="round" stroke-width="2"/>
    <path id="Path_7" data-name="Path 7" d="M27.889,15.611a5.5,5.5,0,1,1-7.778,0,5.5,5.5,0,0,1,7.778,0" fill="none" stroke="#fff" stroke-linecap="round" stroke-linejoin="round" stroke-width="2"/>
    <path id="Path_8" data-name="Path 8" d="M15.176,6H10a4,4,0,0,0-4,4v5.176" fill="none" stroke="#fff" stroke-linecap="round" stroke-linejoin="round" stroke-width="2"/>
    <path id="Path_9" data-name="Path 9" d="M32.824,42H38a4,4,0,0,0,4-4V32.824" fill="none" stroke="#fff" stroke-linecap="round" stroke-linejoin="round" stroke-width="2"/>
    <path id="Path_10" data-name="Path 10" d="M6,32.824V38a4,4,0,0,0,4,4h5.176" fill="none" stroke="#fff" stroke-linecap="round" stroke-linejoin="round" stroke-width="2"/>
    <path id="Path_11" data-name="Path 11" d="M42,15.176V10a4,4,0,0,0-4-4H32.824" fill="none" stroke="#fff" stroke-linecap="round" stroke-linejoin="round" stroke-width="2"/>
  </g>
</svg>
