<svg xmlns="http://www.w3.org/2000/svg" width="42" height="38" viewBox="0 0 42 38">
  <g id="_5ee9aab9b433ae0d2f28c72e_icon-05" data-name="5ee9aab9b433ae0d2f28c72e_icon-05" transform="translate(-3 -5)">
    <path id="Path_12" data-name="Path 12" d="M40,42H8a4,4,0,0,1-4-4V10A4,4,0,0,1,8,6H40a4,4,0,0,1,4,4V38A4,4,0,0,1,40,42Z" fill="none" stroke="#fff" stroke-linecap="round" stroke-linejoin="round" stroke-width="2"/>
    <path id="Path_13" data-name="Path 13" d="M4,16H44" fill="none" stroke="#fff" stroke-linecap="round" stroke-linejoin="round" stroke-width="2"/>
    <path id="Path_14" data-name="Path 14" d="M9.559,10.98a.01.01,0,1,0,.01.01A.009.009,0,0,0,9.559,10.98Z" fill="none" stroke="#fff" stroke-linecap="round" stroke-linejoin="round" stroke-width="2"/>
    <path id="Path_15" data-name="Path 15" d="M14.645,10.98a.009.009,0,0,0-.01.01.011.011,0,0,0,.01.01.01.01,0,0,0,0-.02Z" fill="none" stroke="#fff" stroke-linecap="round" stroke-linejoin="round" stroke-width="2"/>
    <path id="Path_16" data-name="Path 16" d="M19.723,10.98a.01.01,0,1,0,.01.01A.009.009,0,0,0,19.723,10.98Z" fill="none" stroke="#fff" stroke-linecap="round" stroke-linejoin="round" stroke-width="2"/>
    <path id="Path_17" data-name="Path 17" d="M18,16V42" fill="none" stroke="#fff" stroke-linecap="round" stroke-linejoin="round" stroke-width="2"/>
    <path id="Path_18" data-name="Path 18" d="M18,28H44" fill="none" stroke="#fff" stroke-linecap="round" stroke-linejoin="round" stroke-width="2"/>
  </g>
</svg>
