<?xml version="1.0" encoding="UTF-8"?><svg id="Layer_2" xmlns="http://www.w3.org/2000/svg" viewBox="0 0 175.92 23.57"><defs><style>.cls-1{fill:#fff;}</style></defs><g id="Layer_1-2"><g><path class="cls-1" d="M37.2,14.38v4.16h-3.36v-4.16l-6.26-9.34h3.98l4.06,6.12,3.92-6.12h3.82l-6.16,9.34Z"/><path class="cls-1" d="M52.42,18.98c-4.74,0-8.68-2.62-8.68-7.2s3.94-7.18,8.68-7.18,8.68,2.62,8.68,7.18-3.94,7.2-8.68,7.2Zm0-11.5c-3.38,0-5.26,1.66-5.26,4.3s1.88,4.3,5.26,4.3,5.26-1.66,5.26-4.3-1.88-4.3-5.26-4.3Z"/><path class="cls-1" d="M79.04,12.34c0,4.68-3.32,6.64-7.74,6.64s-7.42-2-7.42-6.6V5.04h3.4v6.8c0,3.26,1.62,4.18,4.06,4.18,2.58,0,4.46-.8,4.46-4.16V5.04h3.24v7.3Z"/><path class="cls-1" d="M97.66,18.54h-4.54l-3.66-5.16h-4v5.16h-3.26V5.04h10.54c3.34,0,5,1.6,5,4.18,0,2.32-1.36,3.84-4.14,4.14l4.06,5.18Zm-12.2-10.58v2.42h7.26c.96,0,1.58-.42,1.58-1.26,0-.76-.62-1.16-1.58-1.16h-7.26Z"/><path class="cls-1" d="M109.04,15.28h9.96v3.26h-13.22V5.04h3.26V15.28Z"/><path class="cls-1" d="M128.8,18.98c-4.74,0-8.68-2.62-8.68-7.2s3.94-7.18,8.68-7.18,8.68,2.62,8.68,7.18-3.94,7.2-8.68,7.2Zm0-11.5c-3.38,0-5.26,1.66-5.26,4.3s1.88,4.3,5.26,4.3,5.26-1.66,5.26-4.3-1.88-4.3-5.26-4.3Z"/><path class="cls-1" d="M154.5,9.3c-2.06-1.28-4.04-1.82-6.26-1.82-3.02,0-4.94,1.66-4.94,4.3s1.82,4.3,4.98,4.3c1.7,0,3.62-.22,4.32-.86v-1.26h-3.12v-2.74h6.4v6.24c-1.1,.7-3.62,1.52-7.84,1.52-4.52,0-8.08-2.62-8.08-7.2s3.8-7.18,8.28-7.18c3.54,0,6.76,1.08,7.8,1.86l-1.54,2.84Z"/><path class="cls-1" d="M167.24,18.98c-4.74,0-8.68-2.62-8.68-7.2s3.94-7.18,8.68-7.18,8.68,2.62,8.68,7.18-3.94,7.2-8.68,7.2Zm0-11.5c-3.38,0-5.26,1.66-5.26,4.3s1.88,4.3,5.26,4.3,5.26-1.66,5.26-4.3-1.88-4.3-5.26-4.3Z"/></g><polygon class="cls-1" points="13.61 0 0 23.57 27.22 23.57 13.61 0"/></g></svg>